<svg width="72" height="49" viewBox="0 0 72 49" fill="none" xmlns="http://www.w3.org/2000/svg">
<path d="M0.131934 10.1965C-0.935071 6.44839 4.73822 3.86127 7.48967 3.26012C0.206433 7.63006 6.40558 9.78035 8.38624 9.78035C11.0221 9.78035 17.0568 6.34526 18.0218 5.77502C21.4206 3.76658 28.9813 1.03256 31.6172 0.642066C35.9932 -0.00623677 37.6579 -0.285754 40.4325 0.389715C43.762 1.20028 45.7911 2.72298 46.8773 3.62473C50.5536 6.67675 50.2068 11.0467 48.6808 13.4744C47.1547 15.6941 45.0738 17.1508 41.1894 18.3299C40.7573 18.4611 37.4096 19.1392 35.7097 19.0929C36.875 19.9808 35.2241 22.8848 34.253 24.2259C31.5894 27.1114 33.1432 28.1103 34.253 28.249L38.4149 28.5265C39.3166 28.6652 38.623 29.012 37.6519 29.6363C37.6519 29.6363 26.3455 35.6363 25.9293 35.6016C25.5131 35.5669 24.9742 34.7692 24.6808 34.0062C24.3873 33.2432 22.8773 30.6768 25.9293 27.0698L28.9813 24.2259C33.6426 20.2305 29.7443 17.9831 26.7617 17.9831C24.8888 17.8444 22.3917 18.5935 22.3917 17.9831C22.3917 17.3727 30.7848 12.5033 31.0623 12.3646C31.0623 12.3646 32.9351 11.3935 33.3513 11.8097C33.7675 12.2259 35.1779 14.2143 35.7097 15.4166C41.0923 14.6398 41.8589 11.486 41.5694 10.0062C39.5941 4.4571 29.8071 5.59724 27.4553 6.26056C24.7501 7.02356 17.3975 10.6305 16.2877 11.0467C15.8438 11.2132 9.14318 13.6825 6.22989 13.6825C4.77324 13.6825 1.17849 13.8728 0.131934 10.1965Z" fill="#1E1E1E"/>
<path d="M40.3296 29.4502C45.3067 17.9004 54.9292 17.8576 56.92 17.9004C57.5007 17.9128 58.662 17.9003 59.7404 17.9004C62.063 17.9835 63.6944 19.8392 64.3857 20.8086C66.841 24.664 68.685 24.3736 69.1139 24.2153C70.69 23.6337 71.1048 22.5535 71.3536 21.5564C71.4366 20.7255 71.7684 20.8917 71.9343 21.5564C72.0148 21.8789 72.0549 22.2212 71.8513 22.969C71.6025 23.883 66.1277 30.9167 63.1414 34.1573C61.9801 34.9882 60.9846 34.3235 60.9846 33.1602C60.9017 32.1631 60.7911 30.198 60.6528 28.9516C59.4583 25.495 56.0628 26.1819 54.5144 26.9574C48.7409 29.9487 48.6801 34.7957 49.3714 36.8453C51.4949 40.8337 54.4314 41.4985 56.837 41.4985C59.9063 41.4985 63.5561 38.1194 65.3811 35.9313C65.8788 39.0057 67.9526 41.4431 69.1139 42.5787C68.3176 44.7058 64.7451 46.6779 63.0584 47.398C57.7495 49.6647 53.1319 48.0074 50.1179 47.398C46.5344 46.5339 42.8005 43.742 40.9932 41.083C38.3388 37.1777 39.2512 32.94 40.3296 29.4502Z" fill="#1E1E1E"/>
</svg>
