<svg width="22" height="23" viewBox="0 0 22 23" fill="none" xmlns="http://www.w3.org/2000/svg">
<path d="M4.33333 1.94745L1 5.94745V19.9475C1 20.4779 1.23413 20.9866 1.65087 21.3617C2.06762 21.7367 2.63285 21.9475 3.22222 21.9475H18.7778C19.3671 21.9475 19.9324 21.7367 20.3491 21.3617C20.7659 20.9866 21 20.4779 21 19.9475V5.94745L17.6667 1.94745H4.33333Z" stroke="black" stroke-width="2" stroke-linecap="round" stroke-linejoin="round"/>
<path d="M1 5.94745H21" stroke="black" stroke-width="2" stroke-linecap="round" stroke-linejoin="round"/>
<path d="M15.4444 9.94745C15.4444 11.0083 14.9762 12.0257 14.1427 12.7759C13.3092 13.526 12.1787 13.9475 11 13.9475C9.82126 13.9475 8.6908 13.526 7.8573 12.7759C7.02381 12.0257 6.55556 11.0083 6.55556 9.94745" stroke="black" stroke-width="2" stroke-linecap="round" stroke-linejoin="round"/>
</svg>
